<?xml version="1.0" standalone="no"?>
<!DOCTYPE svg PUBLIC "-//W3C//DTD SVG 1.1//EN" "http://www.w3.org/Graphics/SVG/1.1/DTD/svg11.dtd" >
<!--
2013-9-30: Created.
-->
<svg>
<metadata>
Created by iconfont
</metadata>
<defs>

<font id="iconfont" horiz-adv-x="1024" >
  <font-face
    font-family="iconfont"
    font-weight="500"
    font-stretch="normal"
    units-per-em="1024"
    ascent="896"
    descent="-128"
  />
    <missing-glyph />
    
    <glyph glyph-name="user" unicode="&#59546;" d="M622.816 193.28c-22.112 3.52-22.624 64.32-22.624 64.32s64.96 64.32 79.136 150.816c38.08 0 61.632 91.936 23.52 124.288C704.448 566.72 751.808 800 512 800c-239.808 0-192.448-233.28-190.88-267.328-38.08-32.352-14.56-124.288 23.52-124.288 14.144-86.496 79.136-150.816 79.136-150.816s-0.512-60.8-22.624-64.32C329.952 181.92 64 64.64 64-64l448 0 448 0C960 64.64 694.048 181.92 622.816 193.28z"  horiz-adv-x="1024" />

    
    <glyph glyph-name="u36" unicode="&#58881;" d="M954.432477 666.370616C861.67578 793.345485 712.077327 868.427506 552.722452 868.427506 279.684065 868.427506 58.25573 651.523888 58.25573 384.141397c0-267.523888 221.428335-484.568904 494.466722-484.568904 154.264568 0 300.045291 70.698702 393.508975 191.027893L552.722452 384.141397 954.432477 666.370616 954.432477 666.370616zM634.732947 720.384424c35.632146 0 64.335819-28.279481 64.335819-63.063242 0-34.783761-28.84507-63.063242-64.335819-63.063242-35.632146 0-64.335819 28.279481-64.335819 63.063242C570.25573 692.104943 599.100801 720.384424 634.732947 720.384424L634.732947 720.384424zM634.732947 720.384424"  horiz-adv-x="1024" />

    
    <glyph glyph-name="ai66" unicode="&#59064;" d="M366.036116 172.029284c-38.862099 0-70.634734-31.823799-70.634734-70.637804 0-38.916335 31.773657-70.689992 70.634734-70.689992 38.916335 0 70.689992 31.773657 70.689992 70.689992C436.726108 140.205485 404.95245 172.029284 366.036116 172.029284M154.06847 737.299535l0-70.692039 70.688969 0 127.204124-268.479731-49.525973-84.766592c-3.464915-10.55745-7.034207-24.737404-7.034207-35.348066 0-38.862099 31.773657-70.635757 70.634734-70.635757l423.940408 0 0 70.635757-409.81162 0c-3.572362 0-7.036253 3.571339-7.036253 7.091512l0 3.51915 31.823799 60.029188 261.392312 0c28.202319 0 49.41955 14.180977 60.030212 35.347043l127.150912 229.614561c7.140631 7.142677 7.140631 10.610662 7.140631 17.699104 0 21.217231-14.179954 35.293831-35.346019 35.293831l-522.885931 0-31.828916 70.692039L154.06847 737.299535zM719.334627 172.029284c-38.862099 0-70.635757-31.823799-70.635757-70.637804 0-38.916335 31.774681-70.689992 70.635757-70.689992 38.868239 0 70.641897 31.773657 70.641897 70.689992C789.976524 140.205485 758.202866 172.029284 719.334627 172.029284"  horiz-adv-x="1024" />

    
    <glyph glyph-name="lianxirenxuanzhong" unicode="&#58882;" d="M66.782609-28.134235C66.782609-73.608815 130.972243-89.953681 257.76783-99.765876 331.288591-105.455349 401.862423-106.894679 502.427813-106.894679 602.993205-106.894679 673.567041-105.455349 747.087805-99.765876 873.883394-89.953681 938.07303-73.608815 938.07303-28.134235 938.07303 70.025505 774.50248 159.601139 595.619074 194.943546L613.505149 174.739086 606.548627 269.241126 591.370485 246.482748C654.776057 267.561757 691.139629 311.128545 720.624818 387.64914L705.594902 374.145629C734.17163 381.775258 759.734699 400.916876 776.510549 427.763846 809.881809 481.169025 798.875029 549.56521 749.832366 580.210467 745.213961 583.096366 740.384002 585.560587 735.380137 587.591969L727.006747 566.96595 749.267616 566.965937C749.267674 664.106309 734.805638 725.746923 697.251519 767.828076L680.642702 753.006014 690.32086 732.959081C719.255561 746.928034 735.840817 766.000114 718.216562 791.177618 709.954444 802.980638 697.000982 813.336182 680.392619 823.130668 671.685663 828.265439 662.478251 832.922991 653.284005 837.059719 647.750834 839.549236 643.381622 841.340529 640.724231 842.350397L651.080936 808.815432C652.364137 810.6571 653.877439 813.216248 655.342734 816.44411 658.504686 823.409507 660.228875 830.788941 659.389347 838.823342 656.980636 861.875028 636.728663 873.73913 605.701294 873.73913 575.73827 873.73913 540.01128 855.962383 499.960267 827.42233L512.878801 809.293409 513.473932 831.546322C507.353609 831.710004 501.07274 831.79155 494.625489 831.79155 304.581703 831.79155 240.601567 760.979452 239.988322 570.370667L262.249077 570.299048 254.757457 591.261441C248.424009 588.997969 242.342473 586.05796 236.587061 582.461579 187.544398 551.816322 176.53762 483.420137 209.90888 430.014958 227.234393 402.288342 253.92605 382.798768 283.566586 375.702524L267.930738 389.469883C300.980553 302.171808 332.369734 263.184954 400.098695 246.027634L383.319411 268.425652 379.84115 173.923617 397.859931 194.960691C222.511627 161.047512 66.782609 72.306167 66.782609-28.134235Z"  horiz-adv-x="1024" />

    
    <glyph glyph-name="gouwuche1" unicode="&#58939;" d="M864.234539 409.70424l91.521277 222.162012c12.048862 30.593277-5.045397 55.576016-38.270212 55.576016L331.444886 687.442267l-4.89517 34.360208c-5.876248 28.974499-32.498204 50.540838-62.245301 50.540838L109.482156 772.343313C84.575042 772.343313 64.383234 752.281293 64.383234 727.534627s20.191808-44.808687 45.098922-44.808687l132.97897 0 85.976144-423.97279c-55.642443-16.676279-96.184463-67.946794-96.184463-128.669381 0-74.241022 60.574403-134.42606 135.297788-134.42606 74.722363 0 135.297788 60.185038 135.297788 134.42606 0 16.61905-3.179305 32.466523-8.729549 47.159186L676.698443 177.242954c-5.550244-14.692663-8.729549-30.540136-8.729549-47.159186 0-74.241022 60.574403-134.42606 135.297788-134.42606 74.722363 0 135.297788 60.185038 135.297788 134.42606 0 69.046419-52.418172 125.865134-119.858076 133.488926-5.199713 2.078659-10.848064 3.287633-16.795848 3.287633L418.80578 266.860327l-17.697214 87.267896 381.150786 0C815.322699 354.127202 852.146842 379.009788 864.234539 409.70424zM803.266683 85.27406c-24.908136 0-45.098922 20.060998-45.098922 44.808687s20.191808 44.808687 45.098922 44.808687c24.908136 0 45.098922-20.06202 45.098922-44.808687S828.174818 85.27406 803.266683 85.27406zM412.650539 130.082747c0-24.747689-20.19283-44.808687-45.098922-44.808687-24.908136 0-45.098922 20.060998-45.098922 44.808687s20.191808 44.808687 45.098922 44.808687C392.457709 174.892455 412.650539 154.830435 412.650539 130.082747z"  horiz-adv-x="1024" />

    
    <glyph glyph-name="qicheqianlian-" unicode="&#58904;" d="M908.629 152.235h-650.752c-19.285 0-37.376 7.509-50.859 21.163-13.483 13.653-20.992 31.573-20.821 50.859l2.389 479.232c0 19.115-6.656 31.915-39.765 37.205h-0.171l-95.573 16.384c-9.216 1.536-15.531 10.411-13.995 19.627 1.536 9.216 10.411 15.531 19.627 13.995l95.403-16.384c45.397-7.168 68.437-31.061 68.437-70.997l-2.389-479.403c0-10.069 3.755-19.456 10.923-26.453 7.168-7.168 16.555-11.093 26.624-11.093h650.752c9.387 0 17.067-7.68 17.067-17.067s-7.509-17.067-16.896-17.067zM859.989 250.197l-602.624 1.877c-18.944 0.171-36.693 7.509-50.005 20.992s-20.48 31.232-20.48 50.176l1.877 353.963 681.813-50.859c30.891-1.195 55.125-26.283 55.125-57.173v-253.44c0-36.181-29.525-65.536-65.707-65.536zM257.707 286.208l602.453-1.877c17.408 0 31.573 14.165 31.573 31.403v253.44c0 12.459-9.899 22.699-22.357 23.040h-0.683l-645.632 48.128-1.536-317.44c0-9.728 3.755-18.944 10.581-25.941 6.485-6.827 15.701-10.752 25.6-10.752zM260.437 95.915c0-35.158 28.501-63.659 63.659-63.659s63.659 28.501 63.659 63.659c0 0 0 0 0 0 0 35.158-28.501 63.659-63.659 63.659-35.158 0-63.659-28.501-63.659-63.659 0-0 0-0 0-0zM324.096 15.189c-44.544 0-80.725 36.181-80.725 80.725s36.181 80.725 80.725 80.725c44.544 0 80.725-36.181 80.725-80.725s-36.181-80.725-80.725-80.725zM324.096 142.507c-25.771 0-46.592-20.821-46.592-46.592s20.821-46.592 46.592-46.592 46.592 20.821 46.592 46.592-20.821 46.592-46.592 46.592zM749.056 95.915c-0-0.002-0-0.005-0-0.008 0-35.158 28.501-63.659 63.659-63.659 35.158 0 63.659 28.501 63.659 63.659 0 0.003-0 0.006-0 0.008 0 0.002 0 0.005 0 0.008 0 35.158-28.501 63.659-63.659 63.659-35.158 0-63.659-28.501-63.659-63.659 0-0.003 0-0.006 0-0.008zM812.715 15.189c-44.544 0-80.725 36.181-80.725 80.725s36.181 80.725 80.725 80.725 80.725-36.181 80.725-80.725-36.181-80.725-80.725-80.725zM812.715 142.507c-25.771 0-46.592-20.821-46.592-46.592s20.821-46.592 46.592-46.592 46.592 20.821 46.592 46.592-20.821 46.592-46.592 46.592zM710.315 478.037h-347.819c-9.387 0-17.067 7.68-17.067 17.067s7.68 17.067 17.067 17.067h347.819c9.387 0 17.067-7.68 17.067-17.067s-7.68-17.067-17.067-17.067zM710.315 379.904h-347.819c-9.387 0-17.067 7.68-17.067 17.067s7.68 17.067 17.067 17.067h347.819c9.387 0 17.067-7.68 17.067-17.067s-7.68-17.067-17.067-17.067z"  horiz-adv-x="1024" />

    
    <glyph glyph-name="nantongxue" unicode="&#58883;" d="M424.88 124.83a237.94 237.94 0 0 1-74.6-42.54c-41.89-35.47-66.78-82.67-70.43-133.29h464.3c-3.65 50.62-28.54 97.82-70.43 133.29a237.94 237.94 0 0 1-74.6 42.54 282.52 282.52 0 0 0-174.24 0zM785.12 456.69a120.32 120.32 0 1 0-1.6 2.5 280 280 0 0 1-543.05 0 119.46 119.46 0 1 0-1.6-2.5 73.73 73.73 0 0 1 0.53-147.45c1.59 0 3.16 0.07 4.72 0.17a280.09 280.09 0 0 1 535.73 0c1.56-0.1 3.13-0.17 4.72-0.17a73.73 73.73 0 0 1 0.53 147.45zM340.79 273.65a119.91 119.91 0 1 1-100.32 185.54q-0.81-1.24-1.6-2.5a119.86 119.86 0 0 1 101.91-183zM683.21 513.48a120 120 0 1 1 101.91-56.79q-0.78 1.26-1.6 2.5a119.9 119.9 0 0 1-100.31 54.29zM789.25 296.36a86.73 86.73 0 0 1 5 172.8 291.11 291.11 0 0 1-28.18 67.48H768a13.72 13.72 0 0 1 11.88 20.57 309.38 309.38 0 0 1-183.76 143.18l23.59 25.17a13.72 13.72 0 0 1-1.71 20.26l-67.52 51.7a13.72 13.72 0 0 1-20.48-4.57l-24.92-48-40.35 79.54a13.72 13.72 0 0 1-18.31 6.09l-102.35-50.65a13.72 13.72 0 0 1-2.72-22.81l72.75-60.94a311 311 0 0 1-169.94-138.72A13.72 13.72 0 0 1 256 536.88h2a291.11 291.11 0 0 1-28.32-67.72 86.73 86.73 0 0 1 5-172.8 293.75 293.75 0 0 1 155.9-172c-71.31-35.8-120.31-102.18-124-178.9a9 9 0 0 1 9-9.42h472.76a9 9 0 0 1 9 9.42c-3.73 76.72-52.73 143.1-124 178.9a293.75 293.75 0 0 1 155.91 172z m-30.44 172.8a106.92 106.92 0 1 0-75.6 31.31 106.22 106.22 0 0 0 75.6-31.31zM845.32 383a60.83 60.83 0 0 0-48.26-59.43q0.27 1.15 0.53 2.31a133.17 133.17 0 0 1 10.6 113.06A60.8 60.8 0 0 0 845.32 383zM582.69 536.73L598 601.16l17.76-64.46 119.86-0.05a265.28 265.28 0 0 0 16.7-29.52 132.95 132.95 0 0 1-201.39-100.57h-77.86a132.95 132.95 0 0 1-201.38 100.57 265.27 265.27 0 0 0 16.84 29.74zM265.19 318a106.92 106.92 0 1 0 75.6-31.31 106.22 106.22 0 0 0-75.6 31.31z m-86.51 65a60.8 60.8 0 0 0 37.13 55.93 133.17 133.17 0 0 1 10.6-113.06q0.26-1.14 0.53-2.28A60.81 60.81 0 0 0 178.68 383z m486.64-310.6c35.29-29.92 57.68-68.59 64.27-110.4H294.41c6.58 41.81 29 80.48 64.27 110.37a224.33 224.33 0 0 0 66.58 38.75 294.52 294.52 0 0 1 173.48 0 224.26 224.26 0 0 0 66.58-38.75zM615.87 145a267.16 267.16 0 0 0-347.65 137.2 132.93 132.93 0 0 1 204.85 98.37h77.86a132.93 132.93 0 0 1 204.85-98.37A267.85 267.85 0 0 0 615.87 145z"  horiz-adv-x="1024" />

    
    <glyph glyph-name="-user" unicode="&#58960;" d="M511.997724 888.383716c-278.120107 0-504.383147-226.265316-504.383146-504.385423 0-169.196089 83.749547-319.199004 211.965724-410.744035 8.466773-6.042738 17.141191-11.808996 25.982862-17.333476 57.514667-35.925902 122.736071-60.590649 192.583112-70.884124a506.114276 506.114276 0 0 1 73.85088-5.420942c25.078898 0 49.733973 1.866524 73.846328 5.420942 69.84704 10.293476 135.073564 34.957653 192.583112 70.879004 8.841671 5.52448 17.521209 11.295289 25.987982 17.338596 128.221298 91.545031 211.970276 241.547947 211.970275 410.744035 0.000569 278.120107-226.267022 504.385422-504.387129 504.385423z m0-973.379698c-92.801138 0-179.391716 27.093902-252.280035 73.787164 33.348836 61.326222 100.35712 108.794311 184.14592 125.920711v-12.673137l68.035698-37.801529 68.227982 37.791857v12.683378c83.7888-17.125831 150.797653-64.594489 184.14592-125.920711-72.888889-46.693831-159.477191-73.787733-252.275485-73.787733zM315.721387 376.687502c-8.96 3.234133-15.392996 11.800462-15.392996 21.861831 0 10.063644 6.432996 18.63168 15.392996 21.868089v-43.72992z m388.582969 38.499556v4.988586c8.615253-3.413902 14.731947-11.808996 14.731946-21.618346 0-9.819591-6.116693-18.216391-14.731946-21.627449v38.257209z m-14.548765 75.894898a158.176142 158.176142 0 0 0-4.354275-16.775965c-35.234702 18.234596-83.24096 38.287929-133.779912 45.207325-88.252302 12.070684-96.047218 16.918756-104.578275 41.627875l-7.371093 21.342436-16.909085-14.956658c-0.508587-0.448853-45.898524-40.533902-91.786809-77.523627-6.817564 24.220444-7.849529 49.455787-2.90304 73.981725 15.585849 77.354098 88.997547 133.49888 174.548765 133.49888 13.226098 0 26.594987-1.345422 39.742009-3.991894 48.524516-9.782044 90.577351-36.37248 118.415928-74.875449 27.578596-38.132053 37.861831-83.425849 28.975787-127.534648zM345.920284 415.187058v48.077938c31.650133 25.370738 63.619413 52.733724 81.760143 68.457813 17.323804-26.738347 48.692338-32.406187 119.847822-42.139307 49.211164-6.731662 96.921031-27.969991 126.572089-43.461973v-84.777529c0-90.483484-73.613653-164.088036-164.088036-164.088036-90.478364 0-164.092587 73.604551-164.092586 164.088036v53.843058z m128.151894-264.924729V170.439111c11.655964-2.191929 23.657813-3.391716 35.940693-3.391715a194.360889 194.360889 0 0 1 39.909831 4.14208v-51.358152l-37.999502-21.046044-37.851022 21.031253v30.445796z m315.205973-144.26112c-38.877867 69.141049-114.901333 121.867378-209.151431 139.477333v34.711325c67.936711 26.387911 117.443698 89.906062 123.491556 165.53472 25.765547 3.816107 45.621476 26.022116 45.621475 52.83328 0 25.015182-17.293653 46.011733-40.541867 51.814969 4.650667 11.194596 8.269369 22.84544 10.663823 34.736355 10.574507 52.466916-1.535431 106.1632-34.0992 151.207253-32.30208 44.676551-80.935822 75.497813-136.9344 86.788552-15.102293 3.045831-30.475378 4.586382-45.70624 4.586382-47.941973 0-94.669938-15.420302-131.578311-43.424996-37.717902-28.616818-63.498809-69.220124-72.587378-114.313671-7.469511-37.046613-3.524836-75.374364 11.389724-110.850275l3.411627-8.103823c-24.550969-4.82816-43.143396-26.496569-43.143396-52.447004 0-27.040996 20.206933-49.404587 46.297885-52.929991 6.206009-77.049742 57.504996-141.555484 127.451022-166.960925v-33.180444c-94.252942-17.609956-170.268444-70.336284-209.14688-139.477333C118.546773 91.443769 43.002311 229.055147 43.002311 383.998293c0 258.607218 210.390471 468.997689 468.995413 468.997689s469.000533-210.39104 469.000534-468.997689c-0.000569-154.943147-75.550151-292.554524-191.720107-377.997084z"  horiz-adv-x="1024" />

    
    <glyph glyph-name="gouwuche" unicode="&#58893;" d="M404.4736 294.4a38.272 38.272 0 0 0-4.9152-14.8928L371.2064 230.4H780.8a38.4 38.4 0 0 0 0-76.8H307.2a38.4 38.4 0 0 0-38.3552 40.3264 38.2208 38.2208 0 0 0 5.0752 21.568l46.6432 80.7872-7.0912 26.4576a51.2576 51.2576 0 0 0-3.6352 9.6128l-68.576 256a51.4432 51.4432 0 0 0-1.6512 10.048l-29.6128 110.5088-89.9712 24.1088a38.4 38.4 0 0 0 19.8784 74.176l111.2704-29.8112a38.4 38.4 0 0 0 27.6736-29.312c0.4032-1.0944 0.7616-2.2144 1.0688-3.3664L304.544 652.8h556.736a51.2 51.2 0 0 0 49.4592-64.448l-68.576-256a51.2 51.2 0 0 0-49.4528-37.952H404.4736zM345.6-32c-42.4128 0-76.8 34.3872-76.8 76.8s34.3872 76.8 76.8 76.8 76.8-34.3872 76.8-76.8-34.3872-76.8-76.8-76.8z m416 0c-42.4128 0-76.8 34.3872-76.8 76.8s34.3872 76.8 76.8 76.8 76.8-34.3872 76.8-76.8-34.3872-76.8-76.8-76.8z"  horiz-adv-x="1024" />

    
    <glyph glyph-name="shop-car" unicode="&#58958;" d="M781.01504-77.568a77.59872 77.59872 0 0 0-31.71328 6.66624 84.224 84.224 0 0 0-44.301653 44.301653 79.714987 79.714987 0 0 0 0 63.423147 86.674773 86.674773 0 0 0 18.5344 26.507947 79.510187 79.510187 0 0 0 26.146133 17.230506 83.995307 83.995307 0 0 0 32.078507 6.32832c11.23328 0 22.381227-2.146987 32.812373-6.32832a77.76256 77.76256 0 0 0 26.507947-17.056426 86.34368 86.34368 0 0 0 18.541226-26.507947 79.633067 79.633067 0 0 0 0-63.389013 86.596267 86.596267 0 0 0-18.541226-26.53184 84.906667 84.906667 0 0 0-26.692267-18.548054 82.251093 82.251093 0 0 0-33.37216-6.096213z m-442.187093 2.02752a80.964267 80.964267 0 0 0-32.80896 6.669653 84.3776 84.3776 0 0 0-44.301654 44.301654 79.742293 79.742293 0 0 0 0 63.423146 86.893227 86.893227 0 0 0 18.5344 26.504534 79.182507 79.182507 0 0 0 26.14272 17.257813 87.412053 87.412053 0 0 0 33.18784 6.301013c11.008 0.03072 21.896533-2.116267 32.07168-6.301013a79.58528 79.58528 0 0 0 26.146134-17.257813 86.28224 86.28224 0 0 0 18.54464-26.330454 79.762773 79.762773 0 0 0 0-63.39584 84.066987 84.066987 0 0 0-44.311894-44.301653 77.851307 77.851307 0 0 0-33.000106-6.69696l-0.2048-0.17408z m521.352533 225.273173H302.86848a47.271253 47.271253 0 0 0-26.89024 6.2976 64.887467 64.887467 0 0 0-18.537813 20.005547 136.628907 136.628907 0 0 0-13.725014 29.8496 285.764267 285.764267 0 0 0-8.526506 32.283307c0 3.894613-2.59072 14.25408-5.9392 30.767786-3.334827 16.4864-7.041707 37.061973-11.677014 60.98944l-15.755946 82.507094-17.053014 90.845866a34062.82752 34062.82752 0 0 1-45.602133 239.151787l-2.594133 13.1584H43.864747a27.36128 27.36128 0 0 0-16.868694 4.631893 53.510827 53.510827 0 0 0-13.540693 14.660267 57.361067 57.361067 0 0 0-7.41376 18.54464 99.812693 99.812693 0 0 0-2.607787 20.384427 30.72 30.72 0 0 0 9.458347 23.384746 32.955733 32.955733 0 0 0 24.098133 8.321707H148.241067a61.2352 61.2352 0 0 0 26.68544-4.631893 41.949867 41.949867 0 0 0 14.656853-11.308374 47.151787 47.151787 0 0 0 7.970133-14.65344c2.102613-6.557013 3.833173-12.219733 5.19168-17.05984 1.11616-4.631893 2.402987-12.219733 3.70688-21.68832 1.303893-9.45152 2.77504-20.749653 4.263254-31.310506 1.491627-10.594987 4.266667-26.53184 6.478506-40.61184l2.051414-13.90592H960.853333c13.339307 0.682667 26.671787-1.46432 39.113387-6.301014a37.092693 37.092693 0 0 0 16.513707-13.366613 28.433067 28.433067 0 0 0 4.072106-16.114347 67.771733 67.771733 0 0 0-2.973013-18.548053c-2.106027-6.2976-6.66624-19.29216-13.714773-38.925653a24152.630613 24152.630613 0 0 1-23.36768-65.45408l-24.4736-70.632107a10821.00736 10821.00736 0 0 0-19.647147-55.610027 109.90592 109.90592 0 0 0-30.040747-51.165866 64.02048 64.02048 0 0 0-41.526613-12.99456H288.211627l19.84512-128.105814h550.628693c32.078507 0 34.860373-13.53728 34.860373-27.245226a51.725653 51.725653 0 0 0-7.601493-28.562774c-3.160747-4.80256-10.758827-7.41376-22.439253-7.41376l-3.324587-0.17408z"  horiz-adv-x="1024" />

    
    <glyph glyph-name="man" unicode="&#59592;" d="M614.322902-128H0l31.228081 202.47059A153.580726 153.580726 0 0 0 183.017031 204.758239h248.28884a153.580726 153.580726 0 0 0 151.788951-130.287649zM537.53254 530.861313v9.214843a230.371088 230.371088 0 0 1-460.742177 0v-9.214843a53.753254 53.753254 0 0 1 2.559679-107.506508 57.080836 57.080836 0 0 1 6.911132 0 230.371088 230.371088 0 0 1 169.706702-158.700083V179.161451h102.38715v85.493271a230.371088 230.371088 0 0 1 169.706702 159.467987 57.080836 57.080836 0 0 1 6.911133 0 53.753254 53.753254 0 0 1 2.559679 107.506508zM307.161451 770.447245a230.371088 230.371088 0 0 1-230.371088-230.371089v-51.193575a228.835281 228.835281 0 0 1 55.545029-149.229271A228.323345 228.323345 0 0 1 281.564664 284.10828a230.371088 230.371088 0 0 1 230.371088 230.371089v51.193575a230.371088 230.371088 0 0 1-55.545029 149.48524A230.371088 230.371088 0 0 1 307.161451 770.447245zM203.494461 507.568236m19.197591 0l0 0q19.197591 0 19.197591-19.197591l0-38.395181q0-19.197591-19.197591-19.197591l0 0q-19.197591 0-19.197591 19.197591l0 38.395181q0 19.197591 19.197591 19.197591ZM372.43326 507.568236m19.19759 0l0 0q19.197591 0 19.197591-19.197591l0-38.395181q0-19.197591-19.197591-19.197591l0 0q-19.197591 0-19.19759 19.197591l0 38.395181q0 19.197591 19.19759 19.197591ZM520.894628 746.130297c-40.698892 67.063584-122.608613 102.38715-204.774301 104.178925a48.377929 48.377929 0 0 1-15.870008 33.019856 64.759873 64.759873 0 0 1-56.056965 10.238715l56.824868-43.258571C218.340598 848.517447 136.17491 813.961784 93.428275 744.850457 32.763888 646.814761 76.790363 473.524509 76.790363 473.524509L127.983938 588.710053s108.786347-25.596788 180.969288 0a125.424259 125.424259 0 0 1 76.790363 61.944226 98.8036 98.8036 0 0 1 42.746635-48.121961 148.973304 148.973304 0 0 1 71.415038-13.822265L537.53254 473.524509s45.306314 170.218638-16.637912 272.605788zM305.369676 76.774301l49.4018-55.545029L426.954417 204.758239h-67.831487l-53.753254-127.983938zM308.953226 76.774301l-49.4018-55.545029L187.624453 204.758239h67.575519l53.753254-127.983938zM307.161451 76.774301l-53.753254 127.983938h107.506508L307.161451 76.774301zM947.081141 396.734146a90.868596 90.868596 0 0 1-76.790362-43.514539 90.868596 90.868596 0 0 1-76.790363 43.514539 74.230684 74.230684 0 0 1-76.790363-76.790363 132.079424 132.079424 0 0 1 53.753254-100.595375A341.205179 341.205179 0 0 1 870.290779 166.363057a341.205179 341.205179 0 0 1 99.827471 52.473415 132.079424 132.079424 0 0 1 53.753254 100.595375 74.230684 74.230684 0 0 1-76.790363 77.302299zM1019.776018 345.796539a72.694877 72.694877 0 0 1-72.438909 51.193575 90.868596 90.868596 0 0 1-76.790363-43.514539 90.868596 90.868596 0 0 1-76.790362 43.514539 74.230684 74.230684 0 0 1-76.790363-76.790363 132.079424 132.079424 0 0 1 53.753254-100.595375c5.887261-4.607422 12.03049-9.214844 18.173719-13.31033H793.500416c112.11393-1.535807 204.774301 59.640515 226.275602 139.502493zM751.777652 345.796539m-8.958876 0a8.958876 8.958876 0 1 1 17.917752 0 8.958876 8.958876 0 1 1-17.917752 0ZM737.699419 317.384104c1.791775 10.750651 9.470811 13.054362 13.054361 8.702908s-2.559679-11.262587 2.303711-34.555663S767.903628 255.951814 767.903628 252.112296s-16.125976 14.078233-23.805012 32.763888a61.688258 61.688258 0 0 0-6.399197 32.50792z"  horiz-adv-x="1024" />

    
    <glyph glyph-name="gouwuche2" unicode="&#58907;" d="M298.666667 0m-64 0a64 64 0 1 1 128 0 64 64 0 1 1-128 0ZM810.666667 0m-64 0a64 64 0 1 1 128 0 64 64 0 1 1-128 0ZM780.8 85.333333H330.666667c-64 0-119.466667 46.933333-125.866667 110.933334L134.4 725.333333H64c-23.466667 0-42.666667 19.2-42.666667 42.666667s19.2 42.666667 42.666667 42.666667h70.4c42.666667 0 78.933333-32 85.333333-74.666667l2.133334-32h616.533333c70.4 0 128-57.6 128-128 0-6.4 0-14.933333-2.133333-21.333333l-57.6-362.666667c-10.666667-61.866667-64-106.666667-125.866667-106.666667zM234.666667 618.666667l55.466666-411.733334c2.133333-21.333333 21.333333-36.266667 42.666667-36.266666h448c21.333333 0 38.4 14.933333 42.666667 36.266666l57.6 362.666667c4.266667 23.466667-12.8 44.8-36.266667 49.066667H234.666667zM725.333333 213.333333H384c-23.466667 0-42.666667 19.2-42.666667 42.666667s19.2 42.666667 42.666667 42.666667h341.333333c23.466667 0 42.666667-19.2 42.666667-42.666667s-19.2-42.666667-42.666667-42.666667z"  horiz-adv-x="1024" />

    
    <glyph glyph-name="-MaleUser" unicode="&#59087;" d="M700.8 546.4c-12.9 4.25-29.3-10.4-36.65-32.7-7.35-22.3-2.85-43.8 10.05-48.05s29.3 10.4 36.65 32.7c7.35 22.25 2.85 43.8-10.05 48.05zM323.85 546.4c12.9 4.25 29.3-10.4 36.65-32.7 7.35-22.3 2.85-43.8-10.05-48.05s-29.3 10.4-36.65 32.7c-7.35 22.25-2.85 43.8 10.05 48.05zM580.2 309.6c150.75-66.1 196-101.3 213.85-117.15 27.55-24.4 42.8-115.25 59.05-192.4H170.95c16.25 77.15 31.5 168 59.05 192.4 17.85 15.8 61.45 50.15 212.2 116.25l138 0.9zM580.2 309.6c150.75-66.1 195.95-101.3 213.85-117.15 27.55-24.4 42.8-115.25 59.05-192.4H170.95c16.25 77.15 31.5 168 59.05 192.4 17.85 15.8 61.45 50.15 212.2 116.25l138 0.9zM438.8 441.35v-167.1c40.25-49.3 106.15-47.6 146.4 0V441.35c0 90.2-146.4 90.2-146.4 0zM438.8 441.35v-111.9c27.7-20.2 54.4-31.5 73.2-31.5 18.8 0 45.5 11.3 73.2 31.5V441.35c0 90.2-146.4 90.2-146.4 0zM512 741.35c245.65 0 157.3-296.85 141.25-320.45-17.7-26.05-101.6-95.15-141.25-95.15-39.7 0-123.55 69.05-141.25 95.15C354.7 444.5 266.35 741.35 512 741.35zM624.3 642c14.25-77.85 49.95-70.6 47.1-161.95 19.7 144 37.15 281.05-169.75 287.9-31.1-1.2-64.95-10.05-101.25-33.1-60.25-38.25-92.35-118.6-49.35-242.1 6.55 43.55 5.7 76.9 35.65 106.5 31.35 30.85 101.85-53.05 237.6 42.75zM511.6 237.9s102.15-24.4 102.15-30.55c0-6.2-38.85-207.25-38.85-207.25H436.2l-15.9 206.35 91.3 31.45zM585.2 307.4v-33.2l-31.8-274.15h54.65l60.15 122.1-57.4 38.3 70.15 32.8-64.5 100.1zM438.8 307.2v-33l32.1-274.15H416.25l-60.15 122.1 57.4 38.3-70.15 32.8 57.35 97.05zM585.2 329.45l6.4-24.9-17.9-129.6-62.1 62.95zM543.45 204l-17.75-27.45h-27.5L480.5 204l31.1 33.9 31.85-33.9zM525.75 176.5l25.25-176.45H473l25.25 176.45zM438.8 329.45l-5.05-24.5 16.85-131.3 61 64.25zM714.05 0.05h-11.7c0.5 51.95 0.5 89.35 0.5 89.35s5.25-38.85 11.2-89.35zM309.95 0.05h11.7c-0.5 51.95-0.5 89.35-0.5 89.35s-5.25-38.85-11.2-89.35zM586.4 430.6c-49.4-17.7-106.75-14.8-148.8 0 13.7-63.2 122.55-64.75 148.8 0z"  horiz-adv-x="1024" />

    
    <glyph glyph-name="appreciate_fill" unicode="&#58897;" d="M873.6 480H684.8c12.8 44.8 28.8 115.2 19.2 188.8-6.4 60.8-41.6 105.6-92.8 124.8-38.4 12.8-76.8 6.4-99.2-16-25.6-25.6-38.4-76.8-51.2-128-9.6-35.2-16-70.4-28.8-89.6-32-54.4-102.4-76.8-115.2-80H224c-19.2 0-32-12.8-32-32v-448c0-19.2 12.8-32 32-32h547.2C896-32 960 358.4 960 380.8c0 57.6-44.8 99.2-86.4 99.2zM96 480c-19.2 0-32-12.8-32-32v-448c0-19.2 12.8-32 32-32s32 12.8 32 32V448c0 19.2-12.8 32-32 32z"  horiz-adv-x="1024" />

    
    <glyph glyph-name="appreciate" unicode="&#58898;" d="M873.6 480H684.8c12.8 44.8 28.8 115.2 19.2 188.8-6.4 60.8-41.6 105.6-92.8 124.8-38.4 12.8-76.8 6.4-99.2-16-25.6-25.6-38.4-76.8-51.2-128-9.6-35.2-16-70.4-28.8-89.6-32-54.4-102.4-76.8-115.2-80H224c-19.2 0-32-12.8-32-32v-448c0-19.2 12.8-32 32-32h547.2C896-32 960 358.4 960 380.8c0 57.6-44.8 99.2-86.4 99.2zM771.2 35.2H256V416h76.8c22.4 6.4 108.8 38.4 150.4 108.8 16 25.6 25.6 64 35.2 105.6 9.6 38.4 19.2 86.4 35.2 99.2 3.2 3.2 19.2 6.4 38.4 0 16-3.2 41.6-19.2 48-67.2 12.8-102.4-32-201.6-32-201.6-3.2-9.6-3.2-22.4 3.2-32 6.4-9.6 16-16 25.6-16h236.8c6.4 0 25.6-12.8 25.6-32-3.2-67.2-83.2-345.6-128-345.6zM96 480c-19.2 0-32-12.8-32-32v-448c0-19.2 12.8-32 32-32s32 12.8 32 32V448c0 19.2-12.8 32-32 32z"  horiz-adv-x="1024" />

    
    <glyph glyph-name="android-line" unicode="&#59226;" d="M810.666667 341.333333H213.333333v-298.666666h597.333334v298.666666z m0 85.333334a298.666667 298.666667 0 0 1-597.333334 0h597.333334zM272.298667 726.698667A382.378667 382.378667 0 0 0 512 810.666667c90.666667 0 173.994667-31.402667 239.701333-83.968l61.994667 61.994666 60.330667-60.330666-61.994667-61.994667A382.378667 382.378667 0 0 0 896 426.666667v-426.666667a42.666667 42.666667 0 0 0-42.666667-42.666667H170.666667a42.666667 42.666667 0 0 0-42.666667 42.666667V426.666667c0 90.666667 31.402667 173.994667 83.968 239.701333L149.973333 728.32l60.330667 60.330667 61.994667-61.994667zM384 512a42.666667 42.666667 0 1 0 0 85.333333 42.666667 42.666667 0 0 0 0-85.333333z m256 0a42.666667 42.666667 0 1 0 0 85.333333 42.666667 42.666667 0 0 0 0-85.333333z"  horiz-adv-x="1024" />

    
    <glyph glyph-name="bz-police--o" unicode="&#59008;" d="M512 864c177.87870937 0 322.06451625-64.87741969 322.06451625-144.9290325 0-38.95741969-34.18838719-74.32258031-89.80645219-100.39741875v-112.04129063a231.29806406 231.29806406 0 0 0-52.14967687-146.66322562l63.66967687-24.52645219A247.74193594 247.74193594 0 0 0 914.58064531 104.23741969000002v-77.60516156a92.90322562 92.90322562 0 0 0-92.90322562-92.90322563H202.32258031a92.90322562 92.90322562 0 0 0-92.90322562 92.90322563v77.60516156a247.74193594 247.74193594 0 0 0 158.80258125 231.20516062l63.66967687 24.52645219A231.29806406 231.29806406 0 0 0 279.74193594 506.63225812V618.67354875C224.12387094 644.68645125 189.93548375 680.05161281 189.93548375 719.0709675 189.93548375 799.12258031 334.12129063 864 512 864zM368.52645125 307.66451625l-78.03870938-30.03870937A185.80645125 185.80645125 0 0 1 171.35483844 104.23741969000002v-77.57419406a30.96774187 30.96774187 0 0 1 30.96774187-30.96774188l278.70967781 0.0309675v265.17677438c-38.70967781 5.57419312-76.30451625 21.42967781-112.50580687 46.79225812z m287.78322656-0.30967781c-36.63483844-25.33161281-74.50838719-41.09419313-113.34193594-46.54451625v-265.11483844l278.70967782-0.0309675a30.96774187 30.96774187 0 0 1 30.96774187 30.96774188v77.60516156a185.80645125 185.80645125 0 0 1-119.10193594 173.41935469l-77.23354781 29.69806406zM697.80645125 213.67741968999997a61.93548375 61.93548375 0 1 0 0-123.87096844 61.93548375 61.93548375 0 0 0 0 123.87096844z m-15.48387094 343.7729025l-19.54064437-53.88387094a95.38064531 95.38064531 0 0 0-89.65161375-62.77161281h-122.26064438a95.38064531 95.38064531 0 0 0-89.65161375 62.80258125L341.67741969 557.3574196899999v-50.72516157a170.32258031 170.32258031 0 0 1 340.64516062 0V557.45032219z m-169.92 2.44645219a657.07354875 657.07354875 0 0 0-108.69677344 8.02064531l15.73161282-43.1690325c4.8-13.22322563 17.34193594-22.01806406 31.43225812-22.018065h122.26064438c14.05935469 0 26.63225812 8.79483844 31.43225812 22.018065l16.2270975 44.53161281a659.05548375 659.05548375 0 0 0-108.3870975-9.38322562zM512 802.06451625C364.46967781 802.06451625 251.8709675 751.40129063 251.8709675 719.0709675c0-32.33032219 112.59870937-82.99354875 260.1290325-82.99354781s260.1290325 50.66322562 260.1290325 82.99354781C772.1290325 751.40129063 659.53032219 802.06451625 512 802.06451625z"  horiz-adv-x="1024" />

    
    <glyph glyph-name="wode" unicode="&#58886;" d="M582.656 477.696c-31.744-12.288-58.368-29.184-84.992-51.2-26.624-22.016-48.64-46.08-65.536-73.216-19.456-26.624-34.304-55.808-44.032-90.112-9.728-31.744-14.848-65.536-14.848-102.4 0-31.744 5.12-60.928 12.288-90.112 7.168-29.184 19.456-55.808 34.304-80.384h-24.576c-16.896 0-38.912 0-60.928 2.56-24.576 0-46.08 2.56-73.216 5.12L187.904 5.12c-24.576 2.56-46.08 5.12-65.536 9.728-19.456 2.56-36.352 5.12-51.2 9.728-14.848 2.56-22.016 5.12-26.624 9.728-7.168 5.12-12.288 19.456-14.848 44.032s-2.56 55.808 5.12 97.28c2.56 14.848 7.168 26.624 14.848 36.352s16.896 16.896 26.624 24.576 22.016 12.288 36.352 16.896c9.728 5.12 24.576 7.168 38.912 12.288 14.848 5.12 26.624 7.168 41.472 12.288 12.288 5.12 24.576 9.728 36.352 16.896 12.288 7.168 22.016 14.848 29.184 22.016 7.168 7.168 12.288 14.848 14.848 22.016s5.12 14.848 5.12 22.016v26.624c0 14.848-5.12 24.576-14.848 34.304-7.168 7.168-16.896 16.896-29.184 24.576-7.168 5.12-12.288 9.728-14.848 16.896-5.12 7.168-7.168 14.848-9.728 22.016-2.56 9.728-7.168 19.456-9.728 29.184-5.12 0-7.168 2.56-12.288 7.168l-12.288 12.288c-5.12 5.12-7.168 12.288-9.728 24.576-2.56 9.728-5.12 19.456-2.56 26.624 0 7.168 2.56 16.896 5.12 22.016 2.56 7.168 7.168 12.288 12.288 19.456 0 22.016 0 46.08 2.56 68.096 0 22.016 5.12 41.472 12.288 63.488 5.12 22.016 14.848 41.472 29.184 58.368 12.288 16.896 24.576 31.744 38.912 41.472 14.848 9.728 29.184 19.456 44.032 24.576S336.896 892.416 351.744 894.976c14.336 1.024 28.672 1.024 43.52 1.024 16.896 0 34.304-2.56 51.2-5.12 16.896-5.12 34.304-9.728 48.64-14.848 14.848-7.168 29.184-14.848 41.472-22.016 12.288-7.168 22.016-16.896 26.624-24.576 14.848-19.456 26.624-41.472 34.304-63.488 7.168-24.576 12.288-46.08 14.848-65.536 2.56-24.576 5.12-48.64 5.12-73.216 5.12-2.56 7.168-7.168 9.728-12.288s5.12-9.728 5.12-16.896c2.56-7.168 2.56-14.848 0-24.576 0-12.288-5.12-24.576-7.168-31.744-5.12-7.168-7.168-14.848-12.288-16.896-5.12-5.12-12.288-7.168-16.896-9.728-2.56-5.12-2.56-7.168-2.56-12.288l-5.12-12.288c-3.072-3.072-3.072-8.192-5.632-12.8z m129.024-29.184c38.912 0 75.264-7.168 112.128-22.016 34.304-14.848 65.536-36.352 90.112-60.928 26.624-26.624 46.08-55.808 60.928-90.112 14.848-34.304 22.016-70.656 22.016-109.568s-7.168-75.264-22.016-109.568c-14.848-34.304-36.352-65.536-60.928-90.112-26.624-26.624-55.808-46.08-90.112-60.928-34.304-14.848-73.216-22.016-112.128-22.016s-77.824 7.168-112.128 22.016c-34.304 14.848-65.536 34.304-90.112 60.928-26.624 26.624-46.08 55.808-60.928 90.112-14.848 34.304-22.016 70.656-22.016 109.568s7.168 75.264 22.016 109.568c14.848 34.304 36.352 65.536 60.928 90.112 26.624 26.624 55.808 46.08 90.112 60.928 34.304 14.848 73.216 22.016 112.128 22.016z m167.424-228.864c2.56 12.288 2.56 22.016-5.12 34.304-7.168 9.728-16.896 16.896-26.624 22.016-12.288 5.12-22.016 5.12-34.304 0-12.288-2.56-19.456-12.288-24.576-29.184-2.56-9.728-5.12-19.456-9.728-29.184-2.56-9.728-5.12-19.456-7.168-26.624-2.56-9.728-5.12-19.456-9.728-31.744-5.12-12.288-9.728-24.576-14.848-38.912-5.12-14.848-14.848-22.016-26.624-22.016s-19.456 7.168-26.624 19.456-12.288 24.576-19.456 38.912c-5.12 14.848-12.288 26.624-16.896 41.472l-14.848 36.352c-5.12 9.728-7.168 19.456-9.728 26.624-5.12 9.728-12.288 14.848-24.576 16.896-12.288 0-22.016 0-31.744-5.12-9.728-5.12-19.456-12.288-26.624-22.016-7.168-9.728-7.168-19.456-2.56-31.744 5.12-14.848 9.728-26.624 14.848-41.472 5.12-14.848 12.288-31.744 16.896-46.08 5.12-14.848 12.288-31.744 16.896-46.08 5.12-14.848 9.728-29.184 14.848-38.912 9.728-22.016 22.016-38.912 41.472-51.2 19.456-12.288 38.912-16.896 58.368-16.896s38.912 5.12 58.368 14.848c19.456 9.728 31.744 24.576 41.472 44.032 7.168 16.896 14.848 31.744 19.456 48.64 7.168 16.896 14.848 34.304 19.456 51.2 7.168 16.896 12.288 31.744 16.896 46.08 5.632 12.288 8.192 24.576 12.8 36.352z"  horiz-adv-x="1024" />

    
    <glyph glyph-name="clear" unicode="&#58884;" d="M512-85.333333c259.2 0 469.333333 210.133333 469.333333 469.333333S771.2 853.333333 512 853.333333 42.666667 643.2 42.666667 384s210.133333-469.333333 469.333333-469.333333z m214.826667 261.845333a64 64 0 0 0-90.453334-1.578667l-122.794666 118.570667-118.570667-122.752A64 64 0 0 0 302.933333 259.669333l118.570667 122.752L298.666667 500.992A64 64 0 1 0 387.626667 593.066667l122.794666-118.570667 118.528 122.752A64 64 0 0 0 721.066667 508.330667l-118.613334-122.752 122.794667-118.570667a64 64 0 0 0 1.578667-90.453333z"  horiz-adv-x="1024" />

    
    <glyph glyph-name="tick_circle" unicode="&#58889;" d="M512-85.333333c259.2 0 469.333333 210.133333 469.333333 469.333333S771.2 853.333333 512 853.333333 42.666667 643.2 42.666667 384s210.133333-469.333333 469.333333-469.333333z m251.008 562.261333l-264.448-323.84a64 64 0 0 0-101.333333-0.384l-149.077334 170.666667a64 64 0 1 0 101.034667 78.592l98.133333-105.173334L661.333333 554.666667a64 64 0 1 0 101.674667-77.738667z"  horiz-adv-x="1024" />

    


  </font>
</defs>
</svg>
